<svg width="297" height="115" viewBox="0 0 297 115" fill="none" xmlns="http://www.w3.org/2000/svg">
<g clip-path="url(#clip0_236_71)">
<path d="M48.7997 51.5313H55.7711V100.331H13.9428V51.5313H20.9141V48.0457C20.9141 46.1967 21.6486 44.4235 22.956 43.1161C24.2634 41.8088 26.0366 41.0743 27.8855 41.0743H41.8283C43.6772 41.0743 45.4504 41.8088 46.7578 43.1161C48.0652 44.4235 48.7997 46.1967 48.7997 48.0457V51.5313ZM59.2568 51.5313H62.7424C64.5914 51.5313 66.3646 52.2658 67.672 53.5732C68.9793 54.8806 69.7138 56.6538 69.7138 58.5027V93.3596C69.7138 95.2086 68.9793 96.9818 67.672 98.2892C66.3646 99.5965 64.5914 100.331 62.7424 100.331H59.2568V51.5313ZM10.4571 51.5313V100.331H6.97138C5.12246 100.331 3.34926 99.5965 2.04187 98.2892C0.734483 96.9818 0 95.2086 0 93.3596V58.5027C0 54.6685 3.13712 51.5313 6.97138 51.5313H10.4571ZM27.8855 48.0457V51.5313H41.8283V48.0457H27.8855Z" fill="#FF473E"/>
</g>
<line x1="98.9534" y1="0.678452" x2="98.9534" y2="114.322" stroke="black" stroke-width="5"/>
<path d="M124.457 49.283V34.7375H127.532V46.7474H133.768V49.283H124.457ZM135.748 49.283V38.3739H138.773V49.283H135.748ZM137.268 36.9676C136.818 36.9676 136.432 36.8185 136.11 36.5202C135.793 36.2171 135.634 35.8549 135.634 35.4335C135.634 35.0169 135.793 34.6594 136.11 34.3611C136.432 34.058 136.818 33.9065 137.268 33.9065C137.718 33.9065 138.101 34.058 138.418 34.3611C138.74 34.6594 138.901 35.0169 138.901 35.4335C138.901 35.8549 138.74 36.2171 138.418 36.5202C138.101 36.8185 137.718 36.9676 137.268 36.9676ZM145.217 49.4605C144.388 49.4605 143.638 49.2474 142.966 48.8213C142.298 48.3904 141.768 47.7583 141.375 46.925C140.986 46.0869 140.792 45.0595 140.792 43.8426C140.792 42.5926 140.994 41.5533 141.396 40.7247C141.798 39.8914 142.333 39.2687 143.001 38.8568C143.673 38.4401 144.41 38.2318 145.21 38.2318C145.821 38.2318 146.33 38.336 146.737 38.5443C147.149 38.7479 147.48 39.0036 147.731 39.3114C147.987 39.6144 148.181 39.9127 148.314 40.2062H148.406V34.7375H151.424V49.283H148.441V47.5358H148.314C148.172 47.8388 147.97 48.1395 147.71 48.4378C147.454 48.7313 147.12 48.9752 146.708 49.1693C146.301 49.3634 145.804 49.4605 145.217 49.4605ZM146.176 47.0528C146.664 47.0528 147.075 46.9203 147.412 46.6551C147.753 46.3852 148.013 46.0088 148.193 45.5258C148.378 45.0429 148.47 44.4771 148.47 43.8284C148.47 43.1797 148.38 42.6163 148.2 42.1381C148.02 41.6598 147.76 41.2905 147.419 41.0301C147.078 40.7697 146.664 40.6395 146.176 40.6395C145.679 40.6395 145.26 40.7744 144.919 41.0443C144.578 41.3142 144.32 41.6883 144.145 42.1665C143.969 42.6447 143.882 43.1987 143.882 43.8284C143.882 44.4629 143.969 45.024 144.145 45.5116C144.324 45.9946 144.583 46.3734 144.919 46.648C145.26 46.9179 145.679 47.0528 146.176 47.0528ZM161.105 49.283H157.809L162.831 34.7375H166.794L171.808 49.283H168.512L164.869 38.0614H164.755L161.105 49.283ZM160.899 43.5656H168.683V45.9662H160.899V43.5656ZM179.173 38.3739V40.6466H172.44V38.3739H179.173ZM173.981 49.283V37.5855C173.981 36.7948 174.135 36.139 174.443 35.6182C174.755 35.0973 175.182 34.7067 175.721 34.4463C176.261 34.1859 176.874 34.0557 177.561 34.0557C178.025 34.0557 178.449 34.0912 178.832 34.1622C179.22 34.2332 179.509 34.2972 179.699 34.354L179.159 36.6267C179.04 36.5888 178.894 36.5533 178.718 36.5202C178.548 36.487 178.373 36.4705 178.193 36.4705C177.748 36.4705 177.438 36.5746 177.262 36.783C177.087 36.9865 177 37.273 177 37.6423V49.283H173.981ZM181.021 49.283V38.3739H183.955V40.2773H184.068C184.267 39.6002 184.601 39.0888 185.07 38.7432C185.538 38.3928 186.078 38.2176 186.689 38.2176C186.84 38.2176 187.004 38.2271 187.179 38.246C187.354 38.265 187.508 38.291 187.641 38.3241V41.0088C187.499 40.9662 187.302 40.9283 187.051 40.8952C186.8 40.862 186.571 40.8455 186.362 40.8455C185.917 40.8455 185.519 40.9425 185.169 41.1366C184.823 41.326 184.549 41.5912 184.345 41.9321C184.146 42.273 184.047 42.666 184.047 43.1111V49.283H181.021ZM189.205 49.283V38.3739H192.231V49.283H189.205ZM190.725 36.9676C190.275 36.9676 189.889 36.8185 189.567 36.5202C189.25 36.2171 189.091 35.8549 189.091 35.4335C189.091 35.0169 189.25 34.6594 189.567 34.3611C189.889 34.058 190.275 33.9065 190.725 33.9065C191.175 33.9065 191.558 34.058 191.875 34.3611C192.197 34.6594 192.358 35.0169 192.358 35.4335C192.358 35.8549 192.197 36.2171 191.875 36.5202C191.558 36.8185 191.175 36.9676 190.725 36.9676ZM199.583 49.496C198.466 49.496 197.505 49.2593 196.7 48.7858C195.899 48.3076 195.284 47.6447 194.853 46.7972C194.427 45.9496 194.214 44.9742 194.214 43.871C194.214 42.7536 194.429 41.7735 194.86 40.9307C195.296 40.0831 195.914 39.4226 196.714 38.9491C197.514 38.4709 198.466 38.2318 199.569 38.2318C200.521 38.2318 201.354 38.4046 202.069 38.7503C202.784 39.0959 203.35 39.5812 203.766 40.2062C204.183 40.8312 204.413 41.5651 204.455 42.408H201.6C201.52 41.8634 201.307 41.4255 200.961 41.094C200.62 40.7579 200.173 40.5898 199.619 40.5898C199.15 40.5898 198.74 40.7176 198.39 40.9733C198.044 41.2242 197.774 41.5912 197.58 42.0741C197.386 42.5571 197.289 43.1419 197.289 43.8284C197.289 44.5244 197.384 45.1163 197.573 45.604C197.767 46.0917 198.04 46.4633 198.39 46.719C198.74 46.9747 199.15 47.1026 199.619 47.1026C199.964 47.1026 200.274 47.0315 200.549 46.8895C200.828 46.7474 201.058 46.5415 201.238 46.2716C201.423 45.997 201.543 45.6679 201.6 45.2844H204.455C204.408 46.1177 204.181 46.8516 203.773 47.4861C203.371 48.1158 202.815 48.6082 202.104 48.9633C201.394 49.3185 200.554 49.496 199.583 49.496ZM209.503 49.4889C208.807 49.4889 208.187 49.3682 207.642 49.1267C207.098 48.8805 206.667 48.5183 206.35 48.0401C206.037 47.5571 205.881 46.9558 205.881 46.2361C205.881 45.63 205.992 45.121 206.215 44.7091C206.437 44.2972 206.74 43.9657 207.124 43.7148C207.508 43.4638 207.943 43.2744 208.431 43.1466C208.923 43.0187 209.439 42.9288 209.979 42.8767C210.614 42.8104 211.125 42.7489 211.513 42.692C211.901 42.6305 212.183 42.5405 212.358 42.4222C212.534 42.3038 212.621 42.1286 212.621 41.8966V41.854C212.621 41.4042 212.479 41.0562 212.195 40.8099C211.916 40.5637 211.518 40.4406 211.002 40.4406C210.457 40.4406 210.024 40.5614 209.702 40.8028C209.38 41.0396 209.167 41.3379 209.063 41.6977L206.265 41.4705C206.407 40.8076 206.686 40.2347 207.103 39.7517C207.519 39.264 208.057 38.89 208.715 38.6295C209.378 38.3644 210.145 38.2318 211.016 38.2318C211.622 38.2318 212.202 38.3028 212.756 38.4449C213.315 38.5869 213.81 38.8071 214.24 39.1054C214.676 39.4037 215.019 39.7872 215.27 40.256C215.521 40.72 215.647 41.2763 215.647 41.925V49.283H212.777V47.7702H212.692C212.517 48.1111 212.283 48.4117 211.989 48.6722C211.695 48.9278 211.343 49.1291 210.931 49.2758C210.519 49.4179 210.043 49.4889 209.503 49.4889ZM210.37 47.4008C210.815 47.4008 211.208 47.3133 211.549 47.1381C211.89 46.9581 212.157 46.7167 212.351 46.4136C212.545 46.1106 212.642 45.7673 212.642 45.3838V44.2261C212.548 44.2877 212.418 44.3445 212.252 44.3966C212.091 44.4439 211.909 44.4889 211.705 44.5315C211.501 44.5694 211.298 44.6049 211.094 44.6381C210.891 44.6665 210.706 44.6925 210.54 44.7162C210.185 44.7683 209.875 44.8511 209.61 44.9648C209.345 45.0784 209.139 45.2323 208.992 45.4264C208.845 45.6158 208.772 45.8526 208.772 46.1366C208.772 46.5486 208.921 46.8634 209.219 47.0812C209.522 47.2943 209.906 47.4008 210.37 47.4008ZM230.57 38.9207C230.514 38.3478 230.27 37.9027 229.839 37.5855C229.408 37.2683 228.823 37.1097 228.085 37.1097C227.583 37.1097 227.159 37.1807 226.813 37.3227C226.468 37.46 226.202 37.6518 226.018 37.898C225.838 38.1442 225.748 38.4236 225.748 38.7361C225.738 38.9965 225.793 39.2238 225.911 39.4179C226.034 39.612 226.202 39.7801 226.416 39.9222C226.629 40.0595 226.875 40.1802 227.154 40.2844C227.434 40.3838 227.732 40.469 228.049 40.5401L229.356 40.8526C229.99 40.9946 230.573 41.184 231.103 41.4207C231.633 41.6575 232.093 41.9487 232.481 42.2943C232.869 42.64 233.17 43.0472 233.383 43.5159C233.601 43.9847 233.712 44.5221 233.717 45.1281C233.712 46.0183 233.485 46.7901 233.035 47.4435C232.59 48.0921 231.946 48.5964 231.103 48.9562C230.265 49.3114 229.254 49.4889 228.07 49.4889C226.896 49.4889 225.873 49.309 225.002 48.9491C224.136 48.5893 223.459 48.0566 222.971 47.3511C222.488 46.6409 222.235 45.7626 222.211 44.7162H225.187C225.22 45.2039 225.36 45.6111 225.606 45.9378C225.857 46.2598 226.191 46.5036 226.607 46.6693C227.029 46.8303 227.505 46.9108 228.035 46.9108C228.556 46.9108 229.008 46.835 229.391 46.6835C229.78 46.532 230.08 46.3213 230.293 46.0514C230.506 45.7815 230.613 45.4714 230.613 45.121C230.613 44.7943 230.516 44.5197 230.322 44.2972C230.132 44.0746 229.853 43.8852 229.484 43.729C229.119 43.5727 228.672 43.4307 228.141 43.3028L226.558 42.9051C225.331 42.6068 224.363 42.1404 223.653 41.506C222.943 40.8715 222.59 40.0169 222.595 38.942C222.59 38.0614 222.824 37.2919 223.298 36.6338C223.776 35.9757 224.432 35.4619 225.265 35.0926C226.098 34.7233 227.045 34.5386 228.106 34.5386C229.185 34.5386 230.128 34.7233 230.933 35.0926C231.742 35.4619 232.372 35.9757 232.822 36.6338C233.272 37.2919 233.504 38.0543 233.518 38.9207H230.57ZM238.839 49.4889C238.143 49.4889 237.523 49.3682 236.978 49.1267C236.434 48.8805 236.003 48.5183 235.686 48.0401C235.373 47.5571 235.217 46.9558 235.217 46.2361C235.217 45.63 235.328 45.121 235.551 44.7091C235.773 44.2972 236.076 43.9657 236.46 43.7148C236.843 43.4638 237.279 43.2744 237.767 43.1466C238.259 43.0187 238.775 42.9288 239.315 42.8767C239.95 42.8104 240.461 42.7489 240.849 42.692C241.237 42.6305 241.519 42.5405 241.694 42.4222C241.869 42.3038 241.957 42.1286 241.957 41.8966V41.854C241.957 41.4042 241.815 41.0562 241.531 40.8099C241.252 40.5637 240.854 40.4406 240.338 40.4406C239.793 40.4406 239.36 40.5614 239.038 40.8028C238.716 41.0396 238.503 41.3379 238.399 41.6977L235.601 41.4705C235.743 40.8076 236.022 40.2347 236.439 39.7517C236.855 39.264 237.393 38.89 238.051 38.6295C238.714 38.3644 239.481 38.2318 240.352 38.2318C240.958 38.2318 241.538 38.3028 242.092 38.4449C242.651 38.5869 243.146 38.8071 243.576 39.1054C244.012 39.4037 244.355 39.7872 244.606 40.256C244.857 40.72 244.983 41.2763 244.983 41.925V49.283H242.113V47.7702H242.028C241.853 48.1111 241.619 48.4117 241.325 48.6722C241.031 48.9278 240.679 49.1291 240.267 49.2758C239.855 49.4179 239.379 49.4889 238.839 49.4889ZM239.706 47.4008C240.151 47.4008 240.544 47.3133 240.885 47.1381C241.226 46.9581 241.493 46.7167 241.687 46.4136C241.881 46.1106 241.978 45.7673 241.978 45.3838V44.2261C241.884 44.2877 241.753 44.3445 241.588 44.3966C241.427 44.4439 241.244 44.4889 241.041 44.5315C240.837 44.5694 240.634 44.6049 240.43 44.6381C240.226 44.6665 240.042 44.6925 239.876 44.7162C239.521 44.7683 239.211 44.8511 238.946 44.9648C238.681 45.0784 238.475 45.2323 238.328 45.4264C238.181 45.6158 238.108 45.8526 238.108 46.1366C238.108 46.5486 238.257 46.8634 238.555 47.0812C238.858 47.2943 239.242 47.4008 239.706 47.4008ZM253.196 38.3739V40.6466H246.463V38.3739H253.196ZM248.005 49.283V37.5855C248.005 36.7948 248.159 36.139 248.466 35.6182C248.779 35.0973 249.205 34.7067 249.745 34.4463C250.284 34.1859 250.898 34.0557 251.584 34.0557C252.048 34.0557 252.472 34.0912 252.856 34.1622C253.244 34.2332 253.533 34.2972 253.722 34.354L253.182 36.6267C253.064 36.5888 252.917 36.5533 252.742 36.5202C252.571 36.487 252.396 36.4705 252.216 36.4705C251.771 36.4705 251.461 36.5746 251.286 36.783C251.111 36.9865 251.023 37.273 251.023 37.6423V49.283H248.005ZM257.765 49.4889C257.069 49.4889 256.449 49.3682 255.904 49.1267C255.36 48.8805 254.929 48.5183 254.612 48.0401C254.299 47.5571 254.143 46.9558 254.143 46.2361C254.143 45.63 254.254 45.121 254.477 44.7091C254.699 44.2972 255.002 43.9657 255.386 43.7148C255.769 43.4638 256.205 43.2744 256.693 43.1466C257.185 43.0187 257.701 42.9288 258.241 42.8767C258.875 42.8104 259.387 42.7489 259.775 42.692C260.163 42.6305 260.445 42.5405 260.62 42.4222C260.795 42.3038 260.883 42.1286 260.883 41.8966V41.854C260.883 41.4042 260.741 41.0562 260.457 40.8099C260.177 40.5637 259.78 40.4406 259.264 40.4406C258.719 40.4406 258.286 40.5614 257.964 40.8028C257.642 41.0396 257.429 41.3379 257.325 41.6977L254.526 41.4705C254.668 40.8076 254.948 40.2347 255.364 39.7517C255.781 39.264 256.318 38.89 256.977 38.6295C257.639 38.3644 258.407 38.2318 259.278 38.2318C259.884 38.2318 260.464 38.3028 261.018 38.4449C261.577 38.5869 262.071 38.8071 262.502 39.1054C262.938 39.4037 263.281 39.7872 263.532 40.256C263.783 40.72 263.908 41.2763 263.908 41.925V49.283H261.039V47.7702H260.954C260.779 48.1111 260.544 48.4117 260.251 48.6722C259.957 48.9278 259.604 49.1291 259.193 49.2758C258.781 49.4179 258.305 49.4889 257.765 49.4889ZM258.631 47.4008C259.077 47.4008 259.47 47.3133 259.81 47.1381C260.151 46.9581 260.419 46.7167 260.613 46.4136C260.807 46.1106 260.904 45.7673 260.904 45.3838V44.2261C260.809 44.2877 260.679 44.3445 260.514 44.3966C260.353 44.4439 260.17 44.4889 259.967 44.5315C259.763 44.5694 259.559 44.6049 259.356 44.6381C259.152 44.6665 258.968 44.6925 258.802 44.7162C258.447 44.7683 258.137 44.8511 257.871 44.9648C257.606 45.0784 257.4 45.2323 257.254 45.4264C257.107 45.6158 257.033 45.8526 257.033 46.1366C257.033 46.5486 257.183 46.8634 257.481 47.0812C257.784 47.2943 258.167 47.4008 258.631 47.4008ZM266.256 49.283V38.3739H269.189V40.2773H269.303C269.501 39.6002 269.835 39.0888 270.304 38.7432C270.773 38.3928 271.313 38.2176 271.923 38.2176C272.075 38.2176 272.238 38.2271 272.413 38.246C272.589 38.265 272.742 38.291 272.875 38.3241V41.0088C272.733 40.9662 272.537 40.9283 272.286 40.8952C272.035 40.862 271.805 40.8455 271.597 40.8455C271.152 40.8455 270.754 40.9425 270.403 41.1366C270.058 41.326 269.783 41.5912 269.58 41.9321C269.381 42.273 269.281 42.666 269.281 43.1111V49.283H266.256ZM274.439 49.283V38.3739H277.465V49.283H274.439ZM275.959 36.9676C275.509 36.9676 275.124 36.8185 274.802 36.5202C274.484 36.2171 274.326 35.8549 274.326 35.4335C274.326 35.0169 274.484 34.6594 274.802 34.3611C275.124 34.058 275.509 33.9065 275.959 33.9065C276.409 33.9065 276.793 34.058 277.11 34.3611C277.432 34.6594 277.593 35.0169 277.593 35.4335C277.593 35.8549 277.432 36.2171 277.11 36.5202C276.793 36.8185 276.409 36.9676 275.959 36.9676ZM282.424 34.7375V36.2716C282.424 36.7072 282.339 37.1523 282.168 37.6068C282.003 38.0566 281.78 38.4828 281.501 38.8852C281.221 39.283 280.916 39.6215 280.585 39.9008L279.249 39.1125C279.486 38.7384 279.694 38.3241 279.874 37.8696C280.059 37.4151 280.151 36.8871 280.151 36.2858V34.7375H282.424ZM292.149 41.4847L289.379 41.6551C289.332 41.4184 289.23 41.2053 289.074 41.0159C288.917 40.8218 288.711 40.6679 288.456 40.5543C288.205 40.4359 287.904 40.3767 287.554 40.3767C287.085 40.3767 286.69 40.4761 286.368 40.675C286.046 40.8691 285.885 41.1295 285.885 41.4562C285.885 41.7167 285.989 41.9368 286.197 42.1168C286.405 42.2967 286.763 42.4411 287.27 42.55L289.244 42.9477C290.305 43.1655 291.095 43.5159 291.616 43.9989C292.137 44.4818 292.397 45.1163 292.397 45.9023C292.397 46.6172 292.187 47.2446 291.765 47.7844C291.349 48.3241 290.776 48.7455 290.047 49.0486C289.322 49.3469 288.486 49.496 287.539 49.496C286.095 49.496 284.945 49.1954 284.088 48.594C283.235 47.988 282.736 47.1641 282.589 46.1224L285.565 45.9662C285.655 46.4065 285.873 46.7427 286.218 46.9747C286.564 47.202 287.007 47.3156 287.547 47.3156C288.077 47.3156 288.503 47.2138 288.825 47.0102C289.152 46.8019 289.317 46.5344 289.322 46.2077C289.317 45.933 289.201 45.7081 288.974 45.533C288.747 45.353 288.396 45.2157 287.923 45.121L286.034 44.7446C284.968 44.5315 284.175 44.1622 283.655 43.6366C283.138 43.1111 282.88 42.4411 282.88 41.6267C282.88 40.9259 283.07 40.3223 283.449 39.8156C283.832 39.309 284.369 38.9184 285.061 38.6437C285.757 38.3691 286.571 38.2318 287.504 38.2318C288.882 38.2318 289.966 38.523 290.757 39.1054C291.552 39.6878 292.016 40.4809 292.149 41.4847Z" fill="black"/>
<path d="M153.377 65.0527V64.1152H159.922V65.0527H157.178V72.8424H156.121V65.0527H153.377ZM163.127 72.9788C162.536 72.9788 162.018 72.8382 161.572 72.5569C161.128 72.2757 160.782 71.8822 160.532 71.3765C160.285 70.8708 160.161 70.2799 160.161 69.6038C160.161 68.922 160.285 68.3268 160.532 67.8183C160.782 67.3098 161.128 66.9149 161.572 66.6336C162.018 66.3524 162.536 66.2118 163.127 66.2118C163.718 66.2118 164.235 66.3524 164.678 66.6336C165.124 66.9149 165.471 67.3098 165.718 67.8183C165.968 68.3268 166.093 68.922 166.093 69.6038C166.093 70.2799 165.968 70.8708 165.718 71.3765C165.471 71.8822 165.124 72.2757 164.678 72.5569C164.235 72.8382 163.718 72.9788 163.127 72.9788ZM163.127 72.0754C163.576 72.0754 163.945 71.9603 164.235 71.7302C164.525 71.5001 164.739 71.1976 164.878 70.8226C165.018 70.4476 165.087 70.0413 165.087 69.6038C165.087 69.1663 165.018 68.7586 164.878 68.3808C164.739 68.0029 164.525 67.6976 164.235 67.4646C163.945 67.2316 163.576 67.1152 163.127 67.1152C162.678 67.1152 162.309 67.2316 162.019 67.4646C161.729 67.6976 161.515 68.0029 161.375 68.3808C161.236 68.7586 161.167 69.1663 161.167 69.6038C161.167 70.0413 161.236 70.4476 161.375 70.8226C161.515 71.1976 161.729 71.5001 162.019 71.7302C162.309 71.9603 162.678 72.0754 163.127 72.0754ZM171.753 70.1663V66.297H172.759V72.8424H171.753V71.7345H171.685C171.531 72.0669 171.293 72.3495 170.969 72.5825C170.645 72.8126 170.236 72.9277 169.742 72.9277C169.333 72.9277 168.969 72.8382 168.651 72.6592C168.333 72.4774 168.083 72.2047 167.901 71.841C167.719 71.4745 167.628 71.0129 167.628 70.4561V66.297H168.634V70.3879C168.634 70.8652 168.767 71.2458 169.034 71.5299C169.304 71.814 169.648 71.9561 170.065 71.9561C170.315 71.9561 170.57 71.8922 170.828 71.7643C171.09 71.6365 171.308 71.4404 171.485 71.1762C171.663 70.912 171.753 70.5754 171.753 70.1663ZM174.601 72.8424V66.297H175.572V67.2856H175.64C175.76 66.9618 175.976 66.699 176.288 66.4973C176.601 66.2956 176.953 66.1947 177.345 66.1947C177.419 66.1947 177.511 66.1961 177.622 66.199C177.733 66.2018 177.817 66.2061 177.873 66.2118V67.2345C177.839 67.226 177.761 67.2132 177.639 67.1961C177.52 67.1762 177.393 67.1663 177.26 67.1663C176.942 67.1663 176.657 67.2331 176.407 67.3666C176.16 67.4973 175.964 67.6791 175.819 67.912C175.677 68.1422 175.606 68.4049 175.606 68.7004V72.8424H174.601ZM182.1 65.0527V64.1152H188.645V65.0527H185.901V72.8424H184.844V65.0527H182.1ZM189.46 72.8424V66.297H190.432V67.2856H190.5C190.619 66.9618 190.835 66.699 191.148 66.4973C191.46 66.2956 191.812 66.1947 192.204 66.1947C192.278 66.1947 192.371 66.1961 192.481 66.199C192.592 66.2018 192.676 66.2061 192.733 66.2118V67.2345C192.699 67.226 192.621 67.2132 192.498 67.1961C192.379 67.1762 192.253 67.1663 192.119 67.1663C191.801 67.1663 191.517 67.2331 191.267 67.3666C191.02 67.4973 190.824 67.6791 190.679 67.912C190.537 68.1422 190.466 68.4049 190.466 68.7004V72.8424H189.46ZM195.851 72.9958C195.436 72.9958 195.06 72.9177 194.722 72.7615C194.384 72.6024 194.115 72.3737 193.916 72.0754C193.717 71.7743 193.618 71.4106 193.618 70.9845C193.618 70.6095 193.692 70.3055 193.84 70.0726C193.987 69.8368 194.185 69.6521 194.432 69.5186C194.679 69.3851 194.952 69.2856 195.25 69.2203C195.551 69.1521 195.854 69.0981 196.158 69.0583C196.556 69.0072 196.878 68.9689 197.125 68.9433C197.375 68.9149 197.557 68.868 197.671 68.8027C197.787 68.7373 197.845 68.6237 197.845 68.4618V68.4277C197.845 68.0072 197.73 67.6805 197.5 67.4476C197.273 67.2146 196.928 67.0981 196.465 67.0981C195.985 67.0981 195.608 67.2032 195.335 67.4135C195.063 67.6237 194.871 67.8481 194.76 68.0868L193.806 67.7458C193.976 67.3481 194.203 67.0385 194.487 66.8169C194.774 66.5924 195.087 66.4362 195.425 66.3481C195.766 66.2572 196.101 66.2118 196.431 66.2118C196.641 66.2118 196.882 66.2373 197.155 66.2885C197.431 66.3368 197.696 66.4376 197.952 66.591C198.21 66.7444 198.425 66.976 198.595 67.2856C198.766 67.5953 198.851 68.0101 198.851 68.5299V72.8424H197.845V71.9561H197.794C197.726 72.0981 197.612 72.2501 197.453 72.412C197.294 72.574 197.083 72.7118 196.818 72.8254C196.554 72.939 196.232 72.9958 195.851 72.9958ZM196.004 72.0924C196.402 72.0924 196.737 72.0143 197.01 71.8581C197.286 71.7018 197.493 71.5001 197.632 71.2529C197.774 71.0058 197.845 70.7458 197.845 70.4731V69.5527C197.803 69.6038 197.709 69.6507 197.564 69.6933C197.422 69.7331 197.257 69.7686 197.07 69.7998C196.885 69.8282 196.705 69.8538 196.529 69.8765C196.355 69.8964 196.215 69.9135 196.107 69.9277C195.845 69.9618 195.601 70.0172 195.374 70.0939C195.149 70.1677 194.967 70.2799 194.828 70.4305C194.692 70.5782 194.624 70.7799 194.624 71.0356C194.624 71.3851 194.753 71.6493 195.011 71.8282C195.273 72.0044 195.604 72.0924 196.004 72.0924ZM205.804 66.297L203.384 72.8424H202.361L199.941 66.297H201.032L202.839 71.5129H202.907L204.714 66.297H205.804ZM209.642 72.9788C209.011 72.9788 208.467 72.8396 208.01 72.5612C207.555 72.2799 207.204 71.8879 206.957 71.3851C206.713 70.8794 206.591 70.2913 206.591 69.6208C206.591 68.9504 206.713 68.3595 206.957 67.8481C207.204 67.3339 207.548 66.9333 207.988 66.6464C208.432 66.3566 208.949 66.2118 209.54 66.2118C209.88 66.2118 210.217 66.2686 210.549 66.3822C210.882 66.4958 211.184 66.6805 211.457 66.9362C211.73 67.189 211.947 67.5243 212.109 67.9419C212.271 68.3595 212.352 68.8737 212.352 69.4845V69.9106H207.307V69.0413H211.329C211.329 68.672 211.255 68.3424 211.108 68.0527C210.963 67.7629 210.755 67.5342 210.486 67.3666C210.219 67.199 209.903 67.1152 209.54 67.1152C209.139 67.1152 208.792 67.2146 208.5 67.4135C208.21 67.6095 207.987 67.8652 207.831 68.1805C207.674 68.4958 207.596 68.8339 207.596 69.1947V69.7743C207.596 70.2686 207.682 70.6876 207.852 71.0314C208.025 71.3723 208.265 71.6322 208.572 71.8112C208.879 71.9873 209.236 72.0754 209.642 72.0754C209.906 72.0754 210.145 72.0385 210.358 71.9646C210.574 71.8879 210.76 71.7743 210.916 71.6237C211.072 71.4703 211.193 71.2799 211.278 71.0527L212.25 71.3254C212.148 71.6549 211.976 71.9447 211.734 72.1947C211.493 72.4419 211.194 72.6351 210.839 72.7743C210.484 72.9106 210.085 72.9788 209.642 72.9788ZM214.888 64.1152V72.8424H213.882V64.1152H214.888ZM220.599 72.8424H219.491L222.695 64.1152H223.786L226.991 72.8424H225.883L223.275 65.4958H223.207L220.599 72.8424ZM221.008 69.4333H225.474V70.3708H221.008V69.4333ZM230.856 75.4333C230.37 75.4333 229.953 75.3708 229.603 75.2458C229.254 75.1237 228.962 74.9618 228.73 74.7601C228.499 74.5612 228.316 74.3481 228.18 74.1208L228.981 73.5583C229.072 73.6777 229.187 73.814 229.326 73.9674C229.465 74.1237 229.656 74.2586 229.897 74.3723C230.141 74.4887 230.461 74.547 230.856 74.547C231.384 74.547 231.82 74.4191 232.164 74.1635C232.508 73.9078 232.68 73.5072 232.68 72.9618V71.6322H232.595C232.521 71.7515 232.416 71.8993 232.279 72.0754C232.146 72.2487 231.953 72.4035 231.7 72.5399C231.45 72.6734 231.112 72.7402 230.686 72.7402C230.157 72.7402 229.683 72.6152 229.262 72.3652C228.845 72.1152 228.514 71.7515 228.269 71.2743C228.028 70.797 227.907 70.2174 227.907 69.5356C227.907 68.8652 228.025 68.2814 228.261 67.7842C228.497 67.2842 228.825 66.8978 229.245 66.6251C229.666 66.3495 230.151 66.2118 230.703 66.2118C231.129 66.2118 231.467 66.2828 231.717 66.4248C231.97 66.564 232.163 66.7231 232.296 66.9021C232.433 67.0782 232.538 67.2231 232.612 67.3368H232.714V66.297H233.686V73.0299C233.686 73.5924 233.558 74.0498 233.302 74.4021C233.049 74.7572 232.708 75.0172 232.279 75.1819C231.853 75.3495 231.379 75.4333 230.856 75.4333ZM230.822 71.8368C231.225 71.8368 231.566 71.7444 231.845 71.5598C232.123 71.3751 232.335 71.1095 232.48 70.7629C232.624 70.4163 232.697 70.0015 232.697 69.5186C232.697 69.047 232.626 68.6308 232.484 68.27C232.342 67.9092 232.132 67.6265 231.853 67.422C231.575 67.2174 231.231 67.1152 230.822 67.1152C230.396 67.1152 230.041 67.2231 229.757 67.439C229.475 67.6549 229.264 67.9447 229.122 68.3083C228.982 68.672 228.913 69.0754 228.913 69.5186C228.913 69.9731 228.984 70.3751 229.126 70.7245C229.271 71.0711 229.484 71.3439 229.765 71.5427C230.049 71.7387 230.401 71.8368 230.822 71.8368ZM238.271 72.9788C237.64 72.9788 237.096 72.8396 236.639 72.5612C236.184 72.2799 235.833 71.8879 235.586 71.3851C235.342 70.8794 235.22 70.2913 235.22 69.6208C235.22 68.9504 235.342 68.3595 235.586 67.8481C235.833 67.3339 236.177 66.9333 236.617 66.6464C237.061 66.3566 237.578 66.2118 238.168 66.2118C238.509 66.2118 238.846 66.2686 239.178 66.3822C239.511 66.4958 239.813 66.6805 240.086 66.9362C240.359 67.189 240.576 67.5243 240.738 67.9419C240.9 68.3595 240.981 68.8737 240.981 69.4845V69.9106H235.936V69.0413H239.958C239.958 68.672 239.884 68.3424 239.737 68.0527C239.592 67.7629 239.384 67.5342 239.114 67.3666C238.847 67.199 238.532 67.1152 238.168 67.1152C237.768 67.1152 237.421 67.2146 237.129 67.4135C236.839 67.6095 236.616 67.8652 236.46 68.1805C236.303 68.4958 236.225 68.8339 236.225 69.1947V69.7743C236.225 70.2686 236.311 70.6876 236.481 71.0314C236.654 71.3723 236.894 71.6322 237.201 71.8112C237.508 71.9873 237.864 72.0754 238.271 72.0754C238.535 72.0754 238.774 72.0385 238.987 71.9646C239.203 71.8879 239.389 71.7743 239.545 71.6237C239.701 71.4703 239.822 71.2799 239.907 71.0527L240.879 71.3254C240.776 71.6549 240.605 71.9447 240.363 72.1947C240.122 72.4419 239.823 72.6351 239.468 72.7743C239.113 72.9106 238.714 72.9788 238.271 72.9788ZM243.516 68.9049V72.8424H242.511V66.297H243.482V67.3197H243.568C243.721 66.9873 243.954 66.7203 244.266 66.5186C244.579 66.314 244.982 66.2118 245.477 66.2118C245.92 66.2118 246.308 66.3027 246.64 66.4845C246.972 66.6635 247.231 66.9362 247.416 67.3027C247.6 67.6663 247.693 68.1265 247.693 68.6833V72.8424H246.687V68.7515C246.687 68.2373 246.553 67.8368 246.286 67.5498C246.019 67.2601 245.653 67.1152 245.187 67.1152C244.866 67.1152 244.579 67.1848 244.326 67.324C244.076 67.4632 243.879 67.6663 243.734 67.9333C243.589 68.2004 243.516 68.5243 243.516 68.9049ZM252.189 72.9788C251.576 72.9788 251.047 72.8339 250.604 72.5441C250.161 72.2544 249.82 71.8552 249.581 71.3467C249.343 70.8382 249.223 70.2572 249.223 69.6038C249.223 68.939 249.346 68.3524 249.59 67.8439C249.837 67.3325 250.181 66.9333 250.621 66.6464C251.064 66.3566 251.581 66.2118 252.172 66.2118C252.633 66.2118 253.047 66.297 253.417 66.4674C253.786 66.6379 254.089 66.8765 254.324 67.1833C254.56 67.4902 254.706 67.8481 254.763 68.2572H253.758C253.681 67.9589 253.51 67.6947 253.246 67.4646C252.985 67.2316 252.633 67.1152 252.189 67.1152C251.797 67.1152 251.454 67.2174 251.158 67.422C250.866 67.6237 250.637 67.9092 250.472 68.2785C250.31 68.645 250.229 69.0754 250.229 69.5697C250.229 70.0754 250.309 70.5157 250.468 70.8907C250.63 71.2657 250.857 71.5569 251.15 71.7643C251.445 71.9717 251.792 72.0754 252.189 72.0754C252.451 72.0754 252.688 72.0299 252.901 71.939C253.114 71.8481 253.295 71.7174 253.442 71.547C253.59 71.3765 253.695 71.172 253.758 70.9333H254.763C254.706 71.3197 254.566 71.6677 254.341 71.9774C254.12 72.2842 253.826 72.5285 253.459 72.7103C253.096 72.8893 252.672 72.9788 252.189 72.9788ZM256.881 75.297C256.711 75.297 256.559 75.2828 256.425 75.2544C256.292 75.2288 256.199 75.2032 256.148 75.1777L256.404 74.2913C256.648 74.3538 256.864 74.3765 257.052 74.3595C257.239 74.3424 257.405 74.2586 257.55 74.1081C257.698 73.9603 257.833 73.7203 257.955 73.3879L258.143 72.8765L255.722 66.297H256.813L258.62 71.5129H258.688L260.495 66.297H261.586L258.807 73.797C258.682 74.1351 258.527 74.4149 258.343 74.6365C258.158 74.8609 257.944 75.0271 257.699 75.1351C257.458 75.243 257.185 75.297 256.881 75.297Z" fill="black"/>
<defs>
<clipPath id="clip0_236_71">
<rect width="69.7138" height="69.7138" fill="white" transform="translate(0 34.1029)"/>
</clipPath>
</defs>
</svg>
